<?xml version="1.0" encoding="UTF-8"?>
<svg id="Capa_2" data-name="Capa 2" xmlns="http://www.w3.org/2000/svg" width="159.76" height="173.03" viewBox="0 0 159.76 173.03">
  <defs>
    <style>
      .cls-1 {
        stroke-width: 1.68px;
      }

      .cls-1, .cls-2 {
        fill: none;
        stroke: #313638;
        stroke-miterlimit: 10;
      }

      .cls-3 {
        fill: #ff6338;
      }

      .cls-4, .cls-5 {
        fill: #313638;
      }

      .cls-6 {
        letter-spacing: 0em;
      }

      .cls-5 {
        font-family: Montserrat-SemiBold, Montserrat;
        font-size: 13.14px;
        font-weight: 600;
      }

      .cls-2 {
        stroke-width: 5.2px;
      }

      .cls-7 {
        letter-spacing: .03em;
      }

      .cls-8 {
        letter-spacing: 0em;
      }
    </style>
  </defs>
  <g id="Capa_1-2" data-name="Capa 1">
    <g>
      <path class="cls-4" d="M95.48,53.73c12.24-3.73,16.15-17.25,23.31-26.8,2.8-3.83,7.22-7.37,12.25-7.62,0,0,.37,4.85,.37,4.85-7.71,.95-11.26,10.42-15.07,16.5-2.67,4.63-5.92,9.79-10.43,13.28-2.84,2.23-5.81,4.28-9.71,4.76,0,0-.73-4.97-.73-4.97h0Z"/>
      <path class="cls-4" d="M21.96,60V1h24.19c10.96,0,17.2,8.51,17.2,18.21,0,8.85-5.14,16.27-14.33,17.53,.5,6.74,4.61,19.58,12.56,18.63,2.74-.33,5.22-.75,6.9-2.19,.76,1.6,1.27,2.78,2.12,4.29-2.61,2.44-6.07,3.46-9.36,3.46-13.57,0-17.87-16.44-18.46-23.94h-14.33v23.01h-6.49Zm22.93-28.41c7.33,0,11.8-5.31,11.8-12.47s-4.47-12.73-11.8-12.73H28.45V31.59h16.44Z"/>
      <path class="cls-2" d="M63.57,57.78c6.91-.83,16.57-10.66,16.57-10.66"/>
      <circle class="cls-3" cx="7.85" cy="7.85" r="7.85"/>
      <path class="cls-4" d="M105.03,54.25c-9.74,7.66-21.63,6.23-28.91-3.04-7.28-9.27-5.99-20.95,2.8-27.86,8.79-6.91,20.24-5.43,27.62,3.96,.28,.36,.59,.88,.97,1.35l-26.14,20.54c5.61,6.16,14.01,6.58,20.84,1.21m-23.32-4.36l22.16-17.41c-5.34-5.7-13.16-6.48-19.28-1.67-6.06,4.76-7.16,12.54-2.88,19.08Z"/>
      <polygon class="cls-4" points="74.45 48.69 102.55 26.48 105.04 29.65 77.34 52.7 74.45 48.69"/>
      <g>
        <path class="cls-3" d="M54.54,75.84c3.17,1.44,5.62,3.48,7.33,6.12,1.71,2.64,2.57,5.77,2.57,9.38s-.86,6.68-2.57,9.35c-1.72,2.66-4.16,4.7-7.33,6.12-3.17,1.41-6.92,2.12-11.22,2.12h-9.8v13.41h-11.26v-48.65h21.06c4.31,0,8.05,.72,11.22,2.15Zm-4.14,21.72c1.76-1.46,2.64-3.53,2.64-6.22s-.88-4.83-2.64-6.29c-1.76-1.46-4.33-2.19-7.72-2.19h-9.17v16.89h9.17c3.38,0,5.95-.73,7.72-2.19Z"/>
        <path class="cls-3" d="M97.41,111.91h-22.59l-4.31,10.43h-11.54l21.68-48.65h11.12l21.75,48.65h-11.82l-4.31-10.43Zm-3.54-8.55l-7.71-18.63-7.72,18.63h15.43Z"/>
        <path class="cls-3" d="M155.79,113.3v9.04h-37.67v-48.65h36.77v9.04h-25.58v10.56h22.59v8.76h-22.59v11.26h26.48Z"/>
      </g>
      <text class="cls-5" transform="translate(21.9 152.74)"><tspan x="0" y="0">Puntos de Atención </tspan><tspan x="0" y="16.81">a</tspan><tspan class="cls-8" x="7.98" y="16.81">l</tspan><tspan class="cls-7" x="11.85" y="16.81"> </tspan><tspan class="cls-6" x="15.91" y="16.81">Emprendimiento</tspan></text>
      <g>
        <g>
          <path class="cls-4" d="M155.11,6.15c-.01,9.45-.02,18.9-.04,28.36-1.12,5.2-2.25,10.4-3.37,15.59-.88,1.51-2.65,4.06-5.74,6.15-4.77,3.23-9.6,3.26-11.31,3.25-1.85-.01-8.27-.15-13.59-5.08-3.87-3.58-6.21-8.85-6.21-15.17,0-12.01,8.46-20.17,19.8-20.17,6.35,0,11.79,2.72,15.11,7.86V6.15h5.35Zm-5.27,33.1c0-9.29-6.35-15.49-14.73-15.49s-14.81,6.2-14.81,15.49,6.35,15.49,14.81,15.49,14.73-6.2,14.73-15.49Z"/>
          <path class="cls-1" d="M154.3,34.53s1.77,24.01-19.6,24.01"/>
        </g>
        <rect class="cls-4" x="149.84" y=".74" width="5.26" height="9.6"/>
      </g>
    </g>
  </g>
</svg>