<?xml version="1.0" encoding="UTF-8"?>
<svg id="Capa_2" data-name="Capa 2" xmlns="http://www.w3.org/2000/svg" width="82" height="60.93" viewBox="0 0 82 60.93">
  <defs>
    <style>
      .cls-1 {
        fill: #ff6338;
      }

      .cls-2 {
        fill: #313638;
      }

      .cls-3 {
        fill: none;
        stroke: #313638;
        stroke-miterlimit: 10;
        stroke-width: 5.2px;
      }
    </style>
  </defs>
  <g id="Capa_1-2" data-name="Capa 1">
    <g>
      <path class="cls-2" d="M21.96,60V1h24.19c10.96,0,17.2,8.51,17.2,18.21,0,8.85-5.14,16.27-14.33,17.53,.5,6.74,4.61,19.58,12.56,18.63,2.74-.33,5.22-.75,6.9-2.19,.76,1.6,1.27,2.78,2.12,4.29-2.61,2.44-6.07,3.46-9.36,3.46-13.57,0-17.87-16.44-18.46-23.94h-14.33v23.01h-6.49Zm22.93-28.41c7.33,0,11.8-5.31,11.8-12.47s-4.47-12.73-11.8-12.73H28.45V31.59h16.44Z"/>
      <path class="cls-3" d="M63.57,57.78c6.91-.83,16.57-10.66,16.57-10.66"/>
      <circle class="cls-1" cx="7.85" cy="7.85" r="7.85"/>
    </g>
  </g>
</svg>